# xmcd CD database file
#
# Track frame offsets:
#	150
#	21720
#	55175
#	73300
#	113835
#
# Disc length: 1901 seconds
#
# Revision: 0
# Processed by: cddbd v1.5.2PL0 Copyright (c) Steve Scherf et al.
# Submitted via: CDex 1.79
#
DISCID=49076b05
DTITLE=George Benson - The Other Side of Abbey Road
DYEAR=1988
DGENRE=Jazz
TTITLE0=Golden Slumbers/ You Never Give Me Your Money
TTITLE1=Because/Come Together
TTITLE2=Oh! Darling
TTITLE3=Here Comes The Sun/I Want You (She's So Heavy)
TTITLE4=Something/Octopus's Garden/The End
EXTD=YEAR: 1988
EXTT0=
EXTT1=
EXTT2=
EXTT3=
EXTT4=
PLAYORDER=
